<svg width="32" height="32" viewBox="0 0 32 32" fill="none" xmlns="http://www.w3.org/2000/svg">
<rect width="32" height="32" rx="16" fill="#626FF6"/>
<path d="M23.0377 9.52827L17.9583 6.53448C17.3615 6.18434 16.6845 6 15.9952 6C15.306 6 14.629 6.18434 14.0322 6.53448L8.96268 9.52827C8.36487 9.88345 7.86911 10.3914 7.52476 11.0016C7.18042 11.6118 6.99949 12.3029 7 13.0062V18.9938C7.00068 19.6968 7.18211 20.3875 7.52634 20.9974C7.87057 21.6074 8.36567 22.1156 8.96268 22.4717L14.0421 25.4658C14.638 25.8178 15.3156 26.0022 16.0051 26C16.6934 25.9945 17.369 25.8107 17.9678 25.4658L23.0377 22.4717C23.6354 22.1165 24.1311 21.6085 24.4754 20.9983C24.8197 20.3881 25.0005 19.697 25 18.9938V13.0062C25.0005 12.303 24.8196 11.6119 24.4753 11.0017C24.1311 10.3915 23.6354 9.88352 23.0377 9.52827ZM20.3472 14.3793L16.8066 16.4558L16.8854 20.4879C16.888 20.6115 16.8666 20.7344 16.8224 20.8496C16.7783 20.9648 16.7122 21.0701 16.6279 21.1594C16.5437 21.2486 16.443 21.3202 16.3315 21.3699C16.22 21.4197 16.1 21.4466 15.9783 21.4493C15.8565 21.4519 15.7355 21.4302 15.622 21.3854C15.5085 21.3405 15.4049 21.2734 15.317 21.1879C15.229 21.1024 15.1586 21.0001 15.1096 20.8869C15.0606 20.7737 15.034 20.6519 15.0314 20.5283L14.9567 16.6555L11.6379 14.6514C11.4265 14.5238 11.2736 14.3163 11.2127 14.0744C11.1518 13.8325 11.1878 13.576 11.3129 13.361C11.3737 13.2545 11.4548 13.1613 11.5514 13.0868C11.648 13.0123 11.7582 12.958 11.8756 12.927C11.993 12.8961 12.1153 12.8891 12.2354 12.9065C12.3555 12.9238 12.471 12.9652 12.5752 13.0283C12.5827 13.0207 14.6894 14.2934 15.7147 14.9138L19.4302 12.7362C19.5357 12.6744 19.6522 12.6345 19.7731 12.6188C19.8939 12.6031 20.0165 12.6119 20.134 12.6447C20.2514 12.6776 20.3613 12.7337 20.4571 12.81C20.553 12.8862 20.6331 12.9811 20.6926 13.089C20.8147 13.3067 20.847 13.5647 20.7823 13.8065C20.7175 14.0484 20.5611 14.2543 20.3472 14.3793Z" fill="white"/>
</svg>
