<svg width="16" height="16" viewBox="0 0 16 16" fill="none" xmlns="http://www.w3.org/2000/svg">
<path d="M1 7.99951C1 9.8559 1.73745 11.6363 3.05011 12.9489C4.36277 14.2616 6.14313 14.999 7.99951 14.999C9.8559 14.999 11.6363 14.2616 12.9489 12.9489C14.2616 11.6363 14.999 9.8559 14.999 7.99951C14.999 6.14313 14.2616 4.36277 12.9489 3.05011C11.6363 1.73745 9.8559 1 7.99951 1C6.14313 1 4.36277 1.73745 3.05011 3.05011C1.73745 4.36277 1 6.14313 1 7.99951Z" fill="#C7CDD9"/>
<path d="M5.63925 4.69704L7.99925 7.05588L10.3593 4.69587C10.4844 4.57057 10.6542 4.50011 10.8313 4.5C11.0084 4.49989 11.1783 4.57014 11.3036 4.69529C11.4289 4.82044 11.4994 4.99024 11.4995 5.16734C11.4996 5.34444 11.4293 5.51433 11.3042 5.63964L8.94185 8.00081L11.3019 10.3608C11.4272 10.486 11.4976 10.6558 11.4977 10.8329C11.4978 11.01 11.4276 11.1799 11.3024 11.3052C11.1773 11.4305 11.0075 11.5009 10.8304 11.501C10.6533 11.5011 10.4834 11.4309 10.3581 11.3057L7.99925 8.94341L5.63925 11.3046C5.5141 11.4299 5.34429 11.5003 5.16719 11.5005C4.99009 11.5006 4.8202 11.4303 4.6949 11.3052C4.56959 11.18 4.49913 11.0102 4.49902 10.8331C4.49891 10.656 4.56916 10.4861 4.69431 10.3608L7.05665 8.00081L4.69548 5.64081C4.57017 5.51566 4.49972 5.34585 4.49961 5.16875C4.4995 4.99165 4.56975 4.82176 4.6949 4.69646C4.82005 4.57115 4.98985 4.50069 5.16695 4.50058C5.34405 4.50047 5.51394 4.57072 5.63925 4.69587V4.69704Z" fill="white"/>
</svg>
