<svg width="22" height="22" viewBox="0 0 22 22" fill="none" xmlns="http://www.w3.org/2000/svg">
<g opacity="0.7">
<path d="M3 1.7998H7.81836C9.5856 1.79989 11.0186 3.23274 11.0186 5V19.8467L10.0791 18.3447C9.56751 17.5262 8.67033 17.0285 7.70508 17.0283H3C2.33726 17.0283 1.7998 16.4909 1.7998 15.8281V3C1.79981 2.33726 2.33726 1.7998 3 1.7998Z" stroke="#0A1833" stroke-width="1.6"/>
<path d="M19 1.7998H14.1816C12.4144 1.79989 10.9814 3.23274 10.9814 5V19.8467L11.9209 18.3447C12.4325 17.5262 13.3297 17.0285 14.2949 17.0283H19C19.6627 17.0283 20.2002 16.4909 20.2002 15.8281V3C20.2002 2.33726 19.6627 1.7998 19 1.7998Z" stroke="#0A1833" stroke-width="1.6"/>
</g>
</svg>
