<svg width="32" height="32" viewBox="0 0 32 32" fill="none" xmlns="http://www.w3.org/2000/svg">
<circle opacity="0.12" cx="15.9995" cy="15.9995" r="15.9995" fill="#0A1833"/>
<path d="M23.1934 16.7258C23.3282 16.6583 23.4415 16.5546 23.5207 16.4263C23.5999 16.298 23.6419 16.1502 23.6419 15.9995C23.6419 15.8487 23.5999 15.701 23.5207 15.5727C23.4415 15.4444 23.3282 15.3407 23.1934 15.2731L11.8183 9.5858C11.6773 9.51523 11.5188 9.48723 11.3621 9.50522C11.2054 9.52321 11.0573 9.58641 10.936 9.68711C10.8146 9.7878 10.7251 9.92165 10.6785 10.0723C10.6319 10.223 10.6302 10.3839 10.6735 10.5356L11.8346 14.598C11.8832 14.7678 11.9857 14.9171 12.1268 15.0234C12.2678 15.1297 12.4396 15.1871 12.6162 15.187L16.3302 15.187C16.5457 15.187 16.7523 15.2726 16.9047 15.425C17.0571 15.5774 17.1427 15.784 17.1427 15.9995C17.1427 16.215 17.0571 16.4216 16.9047 16.574C16.7523 16.7264 16.5457 16.812 16.3302 16.812L12.6162 16.812C12.4396 16.8119 12.2678 16.8693 12.1268 16.9756C11.9857 17.0819 11.8832 17.2312 11.8346 17.401L10.6743 21.4634C10.6309 21.615 10.6326 21.7759 10.6791 21.9266C10.7255 22.0773 10.8149 22.2112 10.9362 22.3119C11.0574 22.4127 11.2054 22.476 11.3621 22.4942C11.5187 22.5123 11.6773 22.4844 11.8183 22.414L23.1934 16.7267L23.1934 16.7258Z" fill="white"/>
</svg>
