<svg width="12" height="12" viewBox="0 0 12 12" fill="none" xmlns="http://www.w3.org/2000/svg">
<g clip-path="url(#clip0_424_35767)">
<path d="M5.99619 0.599609C3.01386 0.599609 0.596191 3.01728 0.596191 5.99961C0.596191 8.98196 3.01386 11.3996 5.99619 11.3996C8.97855 11.3996 11.3962 8.98196 11.3962 5.99961C11.3962 3.01728 8.97853 0.599609 5.99619 0.599609ZM9.0935 4.59891L5.60104 8.0914C5.60104 8.0914 5.601 8.09144 5.60093 8.0915C5.43993 8.25255 5.19442 8.2777 5.007 8.167C4.97229 8.14648 4.93956 8.12129 4.90975 8.0915C4.90973 8.09146 4.90969 8.09144 4.90969 8.09144L2.8989 6.08065C2.70805 5.88979 2.70805 5.58031 2.8989 5.38941C3.08976 5.19855 3.39925 5.19855 3.5901 5.38941L5.25538 7.05468L8.40232 3.90774C8.5932 3.71688 8.90269 3.71688 9.09354 3.90774C9.28436 4.09859 9.28436 4.40806 9.0935 4.59891Z" fill="#626FF6"/>
</g>
<defs>
<clipPath id="clip0_424_35767">
<rect width="12" height="12" fill="white"/>
</clipPath>
</defs>
</svg>
