<svg width="32" height="32" viewBox="0 0 32 32" fill="none" xmlns="http://www.w3.org/2000/svg">
<path opacity="0.85" d="M9 21.0606V10C9 9.44772 9.44772 9 10 9H14C15.1046 9 16 9.89543 16 11V24L14.2909 22.3427C14.1043 22.1618 13.8547 22.0606 13.5948 22.0606H10C9.44772 22.0606 9 21.6129 9 21.0606Z" stroke="#081633" stroke-width="1.3" stroke-linejoin="round"/>
<path opacity="0.85" d="M23 21.0606V10C23 9.44772 22.5523 9 22 9H18C16.8954 9 16 9.89543 16 11V24L17.8545 22.2017C17.9478 22.1112 18.0727 22.0606 18.2026 22.0606H22C22.5523 22.0606 23 21.6129 23 21.0606Z" stroke="#081633" stroke-width="1.3" stroke-linejoin="round"/>
</svg>
